<?xml version="1.0" encoding="utf-8"?>
<!-- Generator: Adobe Illustrator 19.0.0, SVG Export Plug-In . SVG Version: 6.00 Build 0)  -->
<svg version="1.1" id="Layer_1" xmlns="http://www.w3.org/2000/svg" xmlns:xlink="http://www.w3.org/1999/xlink" x="0px" y="0px"
	 viewBox="0 0 500 500" style="enable-background:new 0 0 500 500;" xml:space="preserve">
<style type="text/css">
	.st0{fill:#FFFFFF;}
	.st1{fill:#E03A3E;}
	.st2{fill:#EEB310;}
	.st3{fill:#0668B3;}
	.st4{fill:#FAE3B6;}
</style>
<g id="XMLID_1_">
	<path id="XMLID_3_" class="st0" d="M390,166.5c0-1.5,4.1-2.7,6.7-3.3c-1.8-3.1-4.6-3.3-5.3-3.4c-2.1-0.3-3.4-0.4-7.2,3.9
		c1.5-7.7-3.5-8.8-4-9c-0.4-0.2-2.5,0.1-3.6,1.3c1.4,1.5,3.8,2.6,4.3,5.2c0.5,2.6-0.8,4-2,7c-0.3,0.2-2.4,4.7-3.6,7.3
		c0.6-2.3,1.4-7.2,1.2-8.1c-2.5-10.1-13.1-12-12.9-18.9c0.1-3.9,0.8-4,1.2-6.3c1-5.1-2.5-8.8-2.5-8.8c-0.7,0.1-3.3,0.4-5.7,0.6
		l0.3-0.6c1.5-0.2,2.9-0.4,2.9-0.4c10.2-1.2,13.2-6.8,13.5-9.7c0.8-10.1-7-13.6-12.7-13.6c-6.2,0-6.9,2.7-7.4,4.4
		c-0.8,2.8,2.2,5.4,4.4,5.6c1.1,0.1,5.1,1,6-1.7c0.5-1.4,0.5-0.8,1.5,0.6c1.1,1.5,0.8,3.3-0.6,4.2c-1.7,1.1-3.9,1.4-7.3,1.4
		c-3.3,0-7.5-0.8-9.8-2c-2.2-1.2-5.7-4.5-5.5-8.1c0.2-3.6,4.5-5.5,6-6.5c-1.5-1.5-3-1.7-5.5-1.4c-4.6,0.6-5.8,4.1-6,5.5
		c-0.2,1.4,1.6,4.1,2.2,4.8c0.7,0.7,1.4,1,0.3,1.4c-0.4,0.1-1.2,0.5-2.4-0.7c-3.4-3.2-2.8-7.3-2.9-8.2c-0.2-1.6-0.3-8.1-0.5-9.3
		c-0.3-1.4-1.6-3.8-3.6-5c-0.1,0.7-1.2,6.6-2.2,6.9c-1.9-1.4-4.7-7.7-11.8-8.1c-1.7-0.1-2.1,0.3-2.8,1.2c2.2,1.2,6.2,7.6,6,8.6
		c-1.8-1.7-7.1-1.9-7.1-1.9c-1.2,0,2.9,3.2,3.8,3.9c1.4,1.1,4.5,3.4,6.1,4.4c1.8,1.1,5.3,3.8,5.3,3.8s0.3,1-0.2,1.5
		c0,0-0.3-0.3-2.8-1.5c-2.7-1.4-11.2-6-13-7c-1.6-0.9-4.9-2.5-10.5-2.5c-7,0-9.8,5.4-9.8,10.4c0,0.2,0,0.4,0,0.7l-0.5,0.3l-0.7-0.3
		c-0.6-11.6-1.1-15.9-12.9-21.4c-0.1,0.3,3.3,7.6,3.8,11.8c0.2,1.6,0.2,1.6,0.2,1.6c-0.5,0.4-1.6,0.2-2.1-0.5
		c-0.4-0.7-7-10.3-11.1-10.9c-0.3,0.3,1.7,2.3,2.4,4c0.5,1.1,0.9,3.2,0.2,3.7c-1.2,0.8-2.9,0.3-4.2-0.5c-0.7-0.4-5.1-2.6-4.7-10.7
		c0.2-0.6,0.8-3,3.8-3.5c-0.6-1.7-2.2-2.3-4-1.8c-2,0.6-3.8,2.5-4.8,2.7l-1-2.2c0,0-1.4-4.8-4.5-6.5l-0.5-0.1l-0.7,0.2
		c-3.1,1.8-4.6,6.4-4.6,6.4l-1,2.2c-1-0.2-2.8-2.1-4.8-2.7c-1.8-0.5-3.4,0.1-4,1.8c3,0.5,3.6,2.8,3.8,3.5c0.4,8.1-4,10.4-4.7,10.7
		c-1.3,0.7-3,1.3-4.2,0.5c-0.7-0.5-0.3-2.6,0.2-3.7c0.7-1.7,2.7-3.7,2.4-4c-4,0.6-10.6,10.3-11.1,10.9c-0.5,0.8-1.6,1-2.1,0.6
		c0,0,0,0,0.2-1.6c0.4-4.2,3.9-11.5,3.8-11.8c-11.2,5.2-12.2,9.4-12.8,19.9l-1.3,0.2c-0.2-4.8-3-9.7-9.8-9.7
		c-5.6,0-8.9,1.6-10.5,2.5c-1.9,1.1-10.3,5.6-13,7c-2.5,1.3-2.7,1.5-2.7,1.5c-0.5-0.5-0.2-1.5-0.2-1.5s3.5-2.7,5.3-3.8
		c1.6-1,4.7-3.3,6.1-4.4c0.8-0.7,4.9-3.9,3.8-3.9c0,0-5.3,0.2-7.1,1.9c-0.2-1,3.8-7.4,6-8.6c-0.7-0.9-1-1.3-2.7-1.2
		c-7.2,0.3-10,6.7-11.8,8.1c-1-0.3-2.1-6.2-2.2-6.9c-2.1,1.2-3.3,3.6-3.6,5c-0.2,1.2-0.3,7.7-0.5,9.3c-0.1,0.9,0.4,5-2.9,8.2
		c-1.2,1.2-2,0.8-2.4,0.7c-1-0.4-0.3-0.7,0.3-1.4c0.7-0.7,2.4-3.4,2.2-4.8c-0.2-1.4-1.4-4.9-6-5.5c-2.5-0.3-3.9-0.2-5.5,1.4
		c1.6,1,5.8,2.9,6,6.5c0.2,3.6-3.3,6.9-5.5,8.1c-2.2,1.2-6.5,2-9.8,2c-3.3,0-5.5-0.3-7.3-1.4c-1.3-0.9-1.7-2.7-0.6-4.2
		c1-1.3,1-2,1.5-0.6c0.9,2.7,4.9,1.8,6,1.7c2.2-0.2,5.2-2.8,4.4-5.6c-0.5-1.7-1.2-4.4-7.4-4.4c-5.7,0-13.5,3.6-12.7,13.6
		c0.2,2.9,3.3,8.5,13.5,9.7c0,0,1.5,0.2,3.1,0.4l0.1,0.6c-2.5-0.2-5.2-0.5-5.9-0.6c0,0-3.5,3.7-2.5,8.8c0.4,2.2,1.1,2.3,1.2,6.3
		c0.2,6.9-10.4,8.8-12.9,18.9c-0.2,0.9,0.6,5.8,1.2,8.1c-1.2-2.6-3.4-7.1-3.6-7.3c-1.2-2.9-2.5-4.3-2-6.9c0.5-2.6,2.9-3.7,4.3-5.2
		c-1.1-1.2-3.2-1.5-3.6-1.3c-0.5,0.2-5.5,1.3-4,9c-3.8-4.3-5.1-4.3-7.2-3.9c-0.7,0.1-3.5,0.3-5.3,3.4c2.6,0.6,6.7,1.8,6.7,3.3
		c-1.1,1.1-4.8,4.2-5.1,6.3c-0.4,3.4,1.2,4.4,2.2,4.8c0.8-4.3,2.7-6.2,4.8-6.5c1.8-0.2,4.1-0.3,7.1,1.4c3.4,1.9,6.5,4.7,6.5,4.7
		l0-0.1c1.2,1.3,4.2,3.5,7.7,3.2c4.1-0.3,6.3-4,6.3-5.9c0-1.9-1.8-3.2-2.9-3.4c-1-0.2-2.5-0.1-3.6,1.2c-0.7,0.9-1.6,1.4-2.3,0.6
		c-1.1-1.4-0.2-3.2,0.5-4c0.9-0.9,2.5-1.7,4.6-1.7c1.6,0,9.3,2.2,12.7,15.3c3.4,13,2.2,19.1,1.7,22.3c-0.5,3.3-1.7,6.7-3.4,8.7
		c0,0-0.3,0-0.5-1.5c1.4-3.6,1.7-6.4,0.2-11.2c-1.5-4.8-6.4-9-6.9-11.2c-0.4-0.7,0.6-6.8,0.6-6.8s-7.1,0.4-7.5,7.5
		c-0.2,4.4-5.2-7.1-14.4-1.4c-3.9,2.4-3.8,5.6-3.4,6.9c2.2-0.8,2.2-1,4.8-1.2c1.7-0.1,8.9,1.6,9.1,5.2c-3.8,0.7-5.7,2.6-6.7,4.5
		c-1,1.9-0.9,3.4,0.5,5.7c1.2-2.4,4-3.7,8.1-4.1c7.4,0,11.3,6.5,11.3,11.5c0,3.8-0.3,6.6-1.9,9.1c-0.9,1.4-2.8,5-9.9,4.4
		c-1.9-0.3-3.2-1.3-3.5-1.7c-2.3-2.4-0.8-6-0.8-6c0.2,3,4.4,4,6.3,3.4c1.3-0.5,3.7-1.3,3.4-5.4c-0.3-4.1-5.4-7.9-10.9-5.3
		c-6.7,3.7-6.3,14.1-5.5,18.3c0.8,3.9,5,16.8,4.6,21.4c-0.9,12.6-9.7,9.1-10.3,8.7c-0.6-0.4-1.6-1.1-2-1.9c-0.4-1-0.6-1.6-0.5-2.8
		c0.1-1.8,1.9-2.8,1.6-1.9c-0.6,1.7,1,3.2,1.5,3.4c1.8,0.5,5-0.3,5-3.4c0-3.1-2.5-5.3-6-4.9c-6.2,0.6-6.7,7.2-6.6,9
		c0.1,1.1,0.6,2.8,1.1,3.5l0,0c1.5,2.5,4.6,5,7.6,5.5c7.6,1.3,11.8-2.2,13.1-3.6c1.9-1.7,3.4-5.4,3.4-5.4s3.2,1,5.3,6.5
		c1.5,5.1-0.5,9.1-2.4,11.6c-3.9-3-3.4-8.4-3.4-8.4s-9.2,8.6-7.1,16.1c0.2,0.6,1.5,5.9,8.8,7.5c1.2-0.5,2.2-2.4,3.3-2.4
		c2.2-0.2,7.4,8.6,8.6,10.3c1.2,1.9,3.6,5.4,3.6,7.1c0,1.7-7.2-3.5-10.1-6.3c-2.8-2.8-2-5.9-4.4-5.9c-0.5,2.2-0.1,4-0.6,4.2
		c-0.5,0.2-5.6-5-9-4.3c-3.4,0.7-7.9,5.7-7.4,9.2c1.1,0.8,6.5-2.2,7.9-2.4c1.2-0.2,2.8,0.2,2.2,1.8c-1.4,0.7-6,6.1-4.6,6.9
		c1.4,0.8,1.8-2,11.7-1.9c6.2,0.5,8.2,3.4,8.1,5.6c0,1.4-0.3,2.7-1.1,2.9c-1.5,0.5-3.5,0.5-9-0.6c-4.7-0.9-4.8-2-4.6,0.1
		c0.1,1.2,4.1,2.6,4.1,4.5c0,1.9-10.1,4.3-2.5,14.7c3.9,4.2,12.3,4.4,14.4,3.4c0.5-1-6-4.1-5.2-8.2c0.1-0.7,1.5-3.9,5.4-4.2
		c2.4-0.2,0.3,4.6,5.3,5c0-6.4,3.3-6.1,3.3-6.1s1.8-0.3,6.2,1.3c3.2,1.2,5.7,1.7,6.7,4c1,2.2,0.2,1.2-1.4,1.2
		c-1.5,0-3.3-1.2-5.4-0.9c-2.1,0.3-4.1,2.6-4.6,5c-0.5,2.4-0.9,7.7,1.7,8.4c0,0,1.3-5,8.4-8c2.1-0.9,5.1-0.8,8.4,0.4
		c3.3,1.2,15.1,6.9,26.9,6.9c11.8,0,19.8-8.7,21.3-12c0.4-0.9,0.7-1.8,1-2.6c0.1,1.2,1,3.2,2.4,4.2c1.5,1.2,5,0.6,3.5,1.1
		c-1.6,0.5-7.6,3-7.6,4.3c0,1.4,6.6-0.9,7.1-0.4c0.5,0.5,1.1,0.6-0.4,1.7c-1.5,1-11.4,2.6-11.3,5c0.1,2.2,0.5,8.1,1.7,8
		c3.8-7.5,18.3-11.8,15.4-9.8c-0.7,0.8-6.7,5.3-4.9,8.1c0.7,1,4.5,8.5,5.2,8.7c0.7,0.2-1.1-13.7,8.8-17c3.6-1.2-10.7,9.8,8.2,24.1
		c0.3,0.1,0,0,0,0l0.3,0.1l1.1,0c18.9-14.3,4.6-25.3,8.2-24.1c9.8,3.3,8.1,17.2,8.8,17c0.7-0.2,4.5-7.7,5.2-8.7
		c1.8-2.8-4.1-7.3-4.9-8.1c-2.9-2,11.6,2.3,15.4,9.8c1.2,0.2,1.6-5.7,1.7-8c0.1-2.4-9.8-3.9-11.3-5c-1.5-1.1-0.9-1.2-0.4-1.7
		c0.5-0.5,7.1,1.8,7.1,0.4c0-1.4-6.1-3.8-7.7-4.3c-1.6-0.5,1.9,0.1,3.5-1.1c1.3-1,2.2-3,2.4-4.2c0.3,0.9,0.6,1.7,1,2.6
		c1.5,3.3,9.4,12,21.3,12c11.8,0,23.7-5.7,26.9-6.9c3.3-1.2,6.3-1.3,8.4-0.4c7.1,2.9,8.4,8,8.4,8c2.6-0.7,2.2-6,1.7-8.4
		c-0.5-2.4-2.5-4.7-4.6-5c-2.1-0.3-3.9,0.9-5.4,0.9c-1.6,0-2.4,1-1.4-1.2c1-2.2,3.5-2.8,6.7-4c4.4-1.6,6.2-1.3,6.2-1.3
		s3.3-0.3,3.3,6.1c5-0.4,2.9-5.2,5.3-5c3.9,0.3,5.3,3.5,5.4,4.2c0.8,4.1-5.7,7.2-5.2,8.2c2.1,1.1,10.5,0.9,14.4-3.3
		c7.6-10.3-2.5-12.8-2.5-14.7c0-1.9,4-3.3,4.1-4.5c0.2-2,0.1-1-4.6-0.1c-5.5,1.1-7.5,1-9,0.6c-0.8-0.3-1.1-1.6-1.1-2.9
		c-0.1-2.2,2-5.1,8.1-5.6c10-0.2,10.4,2.7,11.7,1.9c1.4-0.8-3.2-6.2-4.6-6.9c-0.6-1.6,1-1.9,2.2-1.8c1.4,0.2,6.7,3.2,7.9,2.4
		c0.5-3.4-3.9-8.5-7.4-9.2c-3.4-0.7-8.5,4.5-9,4.4c-0.5-0.2-0.1-2-0.6-4.2c-2.4,0-1.6,3-4.4,5.9c-2.8,2.8-10.1,8-10.1,6.3
		c0-1.7,2.4-5.2,3.6-7.1c1.2-1.8,6.4-10.5,8.6-10.3c1,0.1,2,1.9,3.3,2.4c7.3-1.6,8.6-6.9,8.8-7.5c2.1-7.5-7.1-16.1-7.1-16.1
		s0.5,5.4-3.4,8.4c-1.9-2.5-3.9-6.5-2.4-11.6c2.1-5.5,5.3-6.5,5.3-6.5s1.6,3.7,3.5,5.4c1.3,1.5,5.5,5,13.1,3.7c3-0.5,6.1-3,7.6-5.5
		h0c0.5-0.7,1-2.3,1.1-3.4c0.1-1.9-0.4-8.4-6.6-9c-3.5-0.4-6,1.8-6,4.9c0,3.1,3.1,3.9,5,3.4c0.5-0.2,2.1-1.6,1.5-3.4
		c-0.3-1,1.4,0.1,1.6,1.9c0.1,1.2-0.1,1.8-0.5,2.8c-0.4,0.7-1.4,1.5-2,1.9c-0.6,0.4-9.4,3.8-10.3-8.7c-0.3-4.5,3.8-17.5,4.6-21.4
		c0.8-4.2,1.2-14.6-5.5-18.3c-5.5-2.6-10.5,1.2-10.8,5.3c-0.3,4.1,2,5,3.4,5.4c1.8,0.7,6.1-0.3,6.3-3.4c0,0,1.5,3.6-0.8,6
		c-0.4,0.4-1.6,1.3-3.5,1.7c-7.1,0.6-9-3-9.9-4.4c-1.6-2.5-1.9-5.3-1.8-9.1c0.1-5,3.9-11.5,11.3-11.5c4.1,0.4,6.9,1.7,8.1,4.1
		c1.4-2.2,1.6-3.8,0.5-5.7c-1-1.9-2.9-3.8-6.7-4.5c0.2-3.6,7.4-5.3,9.1-5.2c2.6,0.2,2.6,0.4,4.8,1.2c0.3-1.4,0.5-4.5-3.4-6.9
		c-9.2-5.6-14.2,5.9-14.4,1.4c-0.3-7.1-7.5-7.5-7.5-7.5s1,6,0.6,6.8c-0.5,2.1-5.3,6.4-6.9,11.2c-1.6,4.8-1.2,7.6,0.2,11.2
		c-0.2,1.5-0.5,1.5-0.5,1.5c-1.7-2.1-2.9-5.5-3.4-8.8c-0.5-3.3-1.8-9.3,1.7-22.3c3.4-13,11.2-15.3,12.7-15.3c2.2,0,3.8,0.8,4.6,1.7
		c0.8,0.8,1.6,2.6,0.6,4c-0.7,0.9-1.6,0.4-2.3-0.6c-1-1.4-2.5-1.4-3.6-1.2c-1,0.2-2.9,1.5-2.9,3.4c0,1.9,2.2,5.5,6.3,5.9
		c3.5,0.3,6.5-1.9,7.7-3.2l0,0.1c0,0,3.1-2.9,6.5-4.7c3-1.7,5.3-1.6,7.1-1.4c2,0.3,4,2.2,4.8,6.5c0.9-0.4,2.6-1.4,2.2-4.8
		C394.9,170.7,391.1,167.6,390,166.5z"/>
	<path id="XMLID_4_" class="st1" d="M250,108.6c0,0,2,3.5,6.8,6.3c3.4,2,10.9,3.7,10.9,3.7c4.8,1.2,13.5,1.9,19.3,7.2
		c4,3.6,7.3,5.4,13.1,5.2c5.6-0.2,7.7-2.9,8.5-3.8c3-3.5,2.5-6.8,2.5-6.8c2.5,0.8,8.5,4,9.6,4.6c2.2,1.1,18.3,10.2,21.6,10.5
		c-1.7,2.3-3,2.6-4.1,2.6c-2.3,0-7.1-0.9-7.4,0.7c0,0-0.8,6,2.6,8.5c0,0-5,9.7-0.2,15.7c4.8-1.9,5.5-2.8,5.5-2.8
		c-0.5,2.2,0.1,4.8,2,4.6c0.9-0.1,2-0.1,2.7,0.4c0,0-5.4,2.9-8.7,13.7c-2,6.4-2.1,14.3-2.1,14.3H167.1c0,0,0.4-6.7-2-14
		c-3.4-10.6-8.6-13.9-8.6-13.9c1.2-0.5,1.8-0.5,2.8-0.4c3,0.4,2-3.5,1.7-4.5l5.7,2.8c4.7-7.6-0.4-15.7-0.4-15.7
		c3.3-2.1,2.8-8.5,2.8-8.5c-0.9-1.2-4.5-0.6-7.6-0.7c-1,0-2.5-0.4-3.9-2.6c5.1-1.6,20-9.7,21-10.4c1-0.7,10.1-4.7,10.1-4.7
		c-0.2,1.1,0.7,4.4,2.4,6.7c1.8,2.5,5.4,4,9.5,3.9c5.8-0.2,8.4-1.7,13.2-6c5.9-5.3,17.5-6.1,18.7-6.8c0,0,7.7-1.5,10.8-3.5
		C247.8,111.9,250,108.6,250,108.6z"/>
	<path id="XMLID_5_" class="st2" d="M388.5,262.2c-0.4,0.7-1.4,1.5-2,1.9c-0.6,0.4-9.4,3.9-10.3-8.7c-0.3-4.5,3.8-17.5,4.6-21.4
		c0.8-4.2,1.2-14.6-5.5-18.3c-5.5-2.6-10.5,1.2-10.9,5.3c-0.3,4.1,2,5,3.4,5.4c1.9,0.7,6.1-0.3,6.3-3.4c0,0,1.5,3.6-0.8,6
		c-0.4,0.4-1.6,1.3-3.5,1.7c-7.1,0.6-9-3-9.9-4.4c-1.6-2.5-1.9-5.3-1.8-9.1c0.1-5,3.9-11.5,11.3-11.5c4.1,0.4,6.9,1.7,8.1,4.1
		c1.4-2.2,1.6-3.8,0.5-5.7c-1-1.9-2.9-3.8-6.7-4.5c0.2-3.6,7.4-5.3,9.1-5.2c2.6,0.2,2.6,0.4,4.8,1.2c0.3-1.4,0.5-4.5-3.4-6.9
		c-9.2-5.6-14.2,5.9-14.4,1.4c-0.3-7.1-7.4-7.5-7.4-7.5c0,0,1,6,0.6,6.8c-0.5,2.1-5.3,6.4-6.9,11.2c-1.5,4.8-1.2,7.5,0.2,11.2
		c-0.2,1.6-0.5,1.6-0.5,1.6c-1.7-2.1-2.9-5.5-3.4-8.8c-0.5-3.3-1.8-9.3,1.7-22.3c3.4-13.1,11.2-15.3,12.7-15.3
		c2.2,0,3.8,0.8,4.6,1.7c0.8,0.8,1.6,2.6,0.6,4c-0.7,0.9-1.6,0.4-2.3-0.6c-1-1.4-2.5-1.4-3.6-1.2c-1,0.2-2.9,1.5-2.9,3.4
		c0,1.9,2.2,5.5,6.3,5.9c4.1,0.3,7.6-2.8,8.1-3.8c0.5-1,1.8-8.1,1.5-9.2c-2.5-10.1-13.1-12-12.9-18.9c0.1-3.9,0.8-4,1.2-6.3
		c1-5.1-2.5-8.8-2.5-8.8c-1.2,0.2-8.2,1-10.5,1c0,0-1.8,4.2-7.8,6.8c-3.9,1.7-5.6,1.5-8,0.8c-0.2,1.2,0.4,1.9,1.6,2.5
		c2.9,1.6,2.4,2.6,2.4,3.2c0,0.5-4.3,3.2-4.3,9.7c1.2-0.3,6.9-6.1,11-6c1,0.9-0.4,2-0.9,3.2c-0.5,1.2-1.4,3.4-1.4,5.5
		c1.9-1,4.3-2.6,6.7-2.6c2.4,0,6,2.2,6,3.4c-2.7,2.4-13.9,7.9-16.8,19.1c-2.9,11.2-1.7,26.3,0.9,33.5c2.6,7.2,7.4,17,17.5,20.8
		c3.5,1.2,5.8,0.8,6.5,0.7c2.2-0.4,4.6-1.9,5.3-2.2c0.5,0.7-0.7,3.7-2.7,7.2c-1.3,2.3-3.7,6.1-9.6,6.7c-4.2,0.1-6.3-5.2-2.9-6.3
		c0,1.6,0.4,2.2,1.7,2.9c1.1,0.6,2.5-0.2,3-1c0.5-0.8,0.5-3.2-0.7-4.3c-1-0.8-1.6-1.6-4.4-1.4c-2.8,0.2-6.8,5.5-3.6,10.5
		c0.7,1.1,2.5,3.9,6.5,4.3c2.9,0.2,7.8-1.7,9.7-3.4c1.9-1.6,1.9-2.5,4-2.6c1.2,1.4-4,5.7-5,6.3c-4.1,2.6-5.9,3-10.2,4.2
		c-4.7,1.3-5,3.6-6.4,6.8c2.1,0,2.8,0.2,4.5,0.5c1.6,0.3,2.4,1.2,2.6,1.7c1.4,4.6-0.3,10.7-0.8,14.2c0.7,1.6,7.4,4.2,9.2,0.9
		c-1.9-2.5-4.1-6.5-2.5-11.8c2.1-5.5,5.3-6.5,5.3-6.5s1.6,3.7,3.5,5.4c1.3,1.5,5.4,5,13.1,3.6c3.1-0.5,6.4-3.3,7.8-5.9L388.5,262.2z
		"/>
	<path id="XMLID_6_" class="st2" d="M392.5,265.1c0.5-0.7,1-2.4,1.1-3.5c0.1-1.9-0.4-8.4-6.6-9c-3.5-0.4-6,1.8-6,4.9
		c0,3.1,3.1,3.9,5,3.4c0.5-0.2,2.1-1.6,1.5-3.4c-0.3-1,1.4,0.1,1.6,1.9c0.1,1.2-0.1,1.8-0.5,2.8L392.5,265.1z"/>
	<path id="XMLID_7_" class="st2" d="M374.6,177.2c0,0,4.1-8.8,4.5-9.1c1.2-2.9,2.5-4.3,2-7c-0.5-2.6-2.9-3.7-4.3-5.2
		c1.1-1.2,3.2-1.5,3.6-1.3c0.4,0.2,5.5,1.3,4,9c3.8-4.3,5.1-4.3,7.2-3.9c0.7,0.1,3.5,0.3,5.3,3.4c-2.6,0.6-6.7,1.8-6.7,3.3
		c1.1,1.1,4.8,4.2,5.1,6.3c0.4,3.4-1.2,4.4-2.2,4.8c-0.8-4.3-2.7-6.2-4.8-6.5c-1.8-0.2-4.1-0.3-7.1,1.4
		C377.7,174.3,374.6,177.2,374.6,177.2z"/>
	<path id="XMLID_8_" class="st3" d="M272.2,241.2h72.3c-0.7,7.5,3.5,11.1,5.2,11.9c0,0-5.5,4.5-5.2,14c0,0,5.9-1,7,0.7
		c1.2,1.9-0.7,9.7-1.6,12.2c-2.7,0-77.7,0.1-77.7,0.1v44.6c0,1-6.3,1.8-10.2,3.1c-2.5,0.9-7.9,3.6-12.1,8.7c-4.6-5.1-8.4-7.6-11-8.7
		c-3.5-1.4-11.8-2.1-11.7-3.1c0-3.1,0-44.7,0-44.7h-76.5c-0.4-1.2-1.3-4.8-1.6-6.9c-0.4-2.9-0.1-4.9-0.1-4.9c-0.1-1.1,3-1.9,6.6-1.1
		c0.6-9.7-5.2-14-5.2-14c3.3-1.8,5.8-5.9,5.2-11.9c2.5,0,71.6,0,71.6,0v-43h45L272.2,241.2L272.2,241.2z"/>
	<polygon id="XMLID_9_" class="st4" points="240.2,215.6 234.1,219.7 240.1,223.8 238.7,231.1 245.8,229.7 249.9,235.9 254,229.8 
		261.2,231.2 259.9,223.8 266,219.8 259.9,215.8 261.5,208.4 254.2,209.9 249.9,203.9 246,209.8 238.8,208.3 	"/>
	<path id="XMLID_14_" class="st4" d="M283.8,249.1h6.3v2.5h-6.3V249.1z M283.8,255.4h6.3v2.5h-6.3V255.4z M283.8,261.8h6.3v2.5h-6.3
		V261.8z M283.8,268h6.3v2.5h-6.3V268z"/>
	<path id="XMLID_15_" class="st4" d="M223.4,277.7h24.9v-2.1c0,0-2.3-2.2-12-2.2C230.9,274,225.8,275.6,223.4,277.7z"/>
	<path id="XMLID_16_" class="st4" d="M276.3,277.7h-24.9v-2.1c0,0,2.3-2.2,12-2.2C268.9,274,273.9,275.6,276.3,277.7z"/>
	<path id="XMLID_17_" class="st0" d="M224.2,273.5v-32.8c0,0,6.2-1.5,8.8-1.4c3.3,0,12.1,1,15.4,3.6c0,2.2,0,29.4,0,29.4
		s-5.5-1.5-10.2-1.5C231,270.7,224.2,273.5,224.2,273.5z"/>
	<path id="XMLID_18_" class="st0" d="M218.1,276.5v-32.2c0,0,1.7-1.6,3.2-2.2c0,1.6,0,32.2,0,32.2S218.4,275.7,218.1,276.5z"/>
	<path id="XMLID_23_" class="st3" d="M231.7,263.7c5.2-1.9,11.2,0,11.2,0.1l-0.5,1.4c0,0-5.5-1.8-10.2-0.1L231.7,263.7z M231.7,258
		c5.2-1.6,11.2,0.4,11.2,0.4l-0.5,1.5c0,0-5.5-1.8-10.3-0.4L231.7,258z M231.8,252.7c4.6-1.1,11.1,0.7,11.1,0.7l-0.5,1.5
		c0,0-6.1-1.7-10.3-0.7L231.8,252.7z M231.8,247.2c4.6-1.1,11.1,1,11.1,1l-0.5,1.5c0,0-6.1-2-10.3-1L231.8,247.2z"/>
	<path id="XMLID_24_" class="st2" d="M92.2,307.9l-19.4,10c-5.4-1.1-7.6-8.8-2.3-13.6c0,0,9.1-5.8,20.4-10.2
		c14.3-5.7,29.8,27.3,20.1,36.9c0,0-0.6,0.8-4.9,2.5c-2,0.8-3.2,1.3-3.2,1.3c-4-2.6-5.4-9.4-3.7-11.6c-1,0.5-2.8,1.3-3.3,3.4
		c-2.5,11.1,11.9,26.8,34,27.7c20.9,0.9,37.2-1.7,55.1,3.9c17.9,5.6,37.6,32.6,64.9,32.6l0,28.7c-40.3,0-57.9-28.9-76.8-35.3
		c-17.5-5.9-40.2,0.5-61.6-5.2c-27-7.1-41.4-30.3-38.1-46.1l22.9-12.2c5.5-2.8,6.7-1.4,6.7,0.9c0,2.4,0.1,8,4.5,6.8
		c-2.8-3.2,0.2-8.5-1.2-11.3c-1.2-2.4-4.6-3.1-8.9-1.3l-13.2,6.8c-0.4-2-1.3-3.5-2.7-4.4l18.5-9.9c-2.3-0.2-10.3-4-7.4-9.9
		C87.5,301.5,88.8,305.6,92.2,307.9z"/>
	<path id="XMLID_25_" class="st2" d="M407.8,307.9l19.4,10c5.4-1.1,7.6-8.8,2.3-13.6c0,0-9.1-5.8-20.4-10.2
		c-14.3-5.7-29.8,27.3-20.1,36.9c0,0,0.6,0.8,4.9,2.5c2,0.8,3.2,1.3,3.2,1.3c4-2.6,5.4-9.4,3.7-11.6c1,0.5,2.8,1.3,3.3,3.4
		c2.6,11.1-11.9,26.8-34,27.7c-20.9,0.9-37.2-1.7-55.1,3.9c-17.9,5.6-37.6,32.6-64.9,32.6l0,28.7c40.3,0,57.9-28.9,76.8-35.3
		c17.5-5.9,40.2,0.5,61.6-5.2c27-7.1,41.4-30.3,38.1-46.1l-22.8-12.2c-5.5-2.8-6.7-1.4-6.7,0.9c0,2.4-0.1,8-4.5,6.8
		c2.8-3.2-0.2-8.5,1.2-11.3c1.2-2.4,4.6-3.1,8.9-1.3l13.2,6.8c0.4-2,1.3-3.5,2.7-4.4l-18.5-9.9c2.3-0.2,10.3-4,7.4-9.9
		C412.5,301.5,411.2,305.6,407.8,307.9z"/>
	<path id="XMLID_26_" class="st0" d="M80.8,345.4l4.1-2.5l0.3,0.5c-1.1,1-1.7,2.1-1.8,3.1c-0.2,1,0,1.9,0.5,2.8
		c0.5,0.8,1,1.3,1.6,1.4c0.6,0.1,1.1,0,1.5-0.2c0.5-0.3,0.8-0.7,0.9-1.3c0.1-0.4,0-1-0.1-2l-0.2-1.5c-0.2-1.5-0.2-2.6,0.1-3.4
		c0.2-0.8,0.7-1.4,1.5-1.9c0.8-0.5,1.8-0.6,2.8-0.4c1.1,0.2,2,1,2.8,2.3c0.4,0.7,0.7,1.4,0.9,2.1c0.2,0.7,0.3,1.1,0.4,1.2
		c0.1,0.2,0.3,0.3,0.4,0.3c0.2,0,0.3,0,0.5-0.1l0.3,0.5l-3.6,2.2l-0.3-0.5c0.7-0.7,1.1-1.6,1.4-2.6c0.2-1,0.1-1.9-0.4-2.8
		c-0.4-0.6-0.8-1-1.3-1.2c-0.5-0.2-1-0.1-1.4,0.1c-0.5,0.3-0.8,0.7-0.9,1.2c-0.1,0.5,0,1.5,0.2,2.9l0.2,1.8c0.1,0.8,0.1,1.4,0,2
		c-0.2,1.1-0.8,1.8-1.7,2.4c-0.8,0.5-1.8,0.6-3,0.3c-1.2-0.3-2.2-1.2-3.2-2.8c-0.2-0.4-0.4-0.8-0.6-1.2c-0.2-0.4-0.3-0.9-0.4-1.3
		l-0.1-0.4l-0.1-0.3l-0.1-0.2c-0.1-0.2-0.2-0.3-0.4-0.3c-0.1,0-0.3,0-0.5,0.1L80.8,345.4z"/>
	<path id="XMLID_27_" class="st0" d="M90,358l0.3-0.4c0.5,0.4,0.8,0.6,1.1,0.7c0.5,0.1,0.9,0,1.3-0.4L99,351
		c0.4-0.4,0.5-0.9,0.3-1.3c-0.1-0.2-0.4-0.6-0.8-1l0.3-0.4l5.5,5l-0.3,0.4c-0.5-0.4-0.9-0.7-1.2-0.8c-0.4-0.1-0.8,0-1.2,0.4
		l-6.2,6.9c-0.4,0.4-0.5,0.8-0.4,1.1c0.1,0.4,0.4,0.7,0.9,1.2l-0.3,0.4L90,358z"/>
	<path id="XMLID_30_" class="st0" d="M110.2,358.2c0.2-0.4,0.3-0.6,0.5-0.7c0.2-0.1,0.6-0.1,1.1,0.1c1.5,0.7,2.3,1.9,2.3,3.6
		c0,1.1-0.3,2.2-0.8,3.5c-0.9,2.1-1.9,3.4-3,3.8c-1.1,0.4-2.2,0.4-3.3-0.1c-0.4-0.2-0.7-0.4-0.7-0.6c-0.1-0.2,0-0.5,0.1-0.9
		L110.2,358.2z M107.1,369.1c2.2,1,4.3,1.1,6.1,0.4c1.6-0.6,2.8-1.7,3.5-3.3c0.8-1.8,0.8-3.4,0.1-5c-0.8-1.7-2.3-3.1-4.7-4.1l-6-2.6
		l-0.2,0.4c0.5,0.3,0.8,0.5,1,0.7c0.3,0.3,0.3,0.7,0.1,1.2l-3.8,8.7c-0.2,0.5-0.5,0.7-1,0.7c-0.3,0-0.6-0.1-1.1-0.3l-0.2,0.4
		L107.1,369.1z"/>
	<path id="XMLID_31_" class="st0" d="M130.2,374l-12.3-1.6l0.1-0.5c0.6,0,1,0,1.3-0.1c0.4-0.1,0.7-0.5,0.7-1l1.2-9.2
		c0.1-0.6-0.1-1-0.5-1.2c-0.2-0.2-0.6-0.3-1.2-0.4l0.1-0.5l12.1,1.5l-0.5,3.8l-0.5-0.1c-0.1-1.3-0.5-2.2-1-2.7
		c-0.6-0.5-1.7-0.9-3.4-1.1c-0.6-0.1-1-0.1-1.2,0c-0.2,0.1-0.3,0.3-0.4,0.7l-0.6,4.4c1.2,0.2,2,0.1,2.5-0.3c0.5-0.3,0.9-1.1,1.3-2.1
		l0.5,0.1l-0.8,6.5l-0.5-0.1c0-1.1-0.2-1.9-0.6-2.4c-0.4-0.5-1.2-0.8-2.4-1l-0.6,4.6c0,0.4,0,0.7,0.2,0.9c0.2,0.2,0.7,0.3,1.4,0.4
		c1.3,0.2,2.5,0.1,3.4-0.3c0.9-0.4,1.8-1.2,2.6-2.4l0.6,0.1L130.2,374z"/>
	<path id="XMLID_34_" class="st0" d="M139.8,362.5c0-0.3,0.1-0.5,0.3-0.6c0.2-0.1,0.5-0.2,1.1-0.2c1,0,1.8,0.4,2.1,1.1
		c0.2,0.4,0.3,1,0.3,1.8c0,1.2-0.3,2-0.9,2.3c-0.6,0.3-1.6,0.5-3,0.5L139.8,362.5z M141.5,374l0-0.5c-0.7,0-1.2-0.2-1.5-0.4
		c-0.3-0.2-0.4-0.7-0.4-1.4l0-3.8l0.6,0l4.3,6.1l4.3,0l0-0.5c-0.2,0-0.4,0-0.5-0.1l-0.4-0.3l-4.2-5.5c0.7-0.1,1.4-0.4,2.1-0.8
		c0.8-0.6,1.3-1.4,1.3-2.5c0-1.4-0.8-2.4-2.5-3c-0.9-0.3-2-0.4-3.4-0.5l-6.8-0.1v0.5c0.7,0.1,1.2,0.2,1.4,0.3
		c0.3,0.2,0.5,0.7,0.4,1.5l-0.1,8.5c0,0.7-0.1,1.2-0.4,1.4c-0.3,0.2-0.8,0.3-1.5,0.3v0.5L141.5,374z"/>
	<path id="XMLID_35_" class="st0" d="M163.5,374.5l-12.4-0.3l0-0.5c0.6,0,1-0.1,1.3-0.2c0.4-0.2,0.6-0.6,0.6-1.1l0.2-9.3
		c0-0.6-0.2-0.9-0.6-1.1c-0.2-0.1-0.7-0.2-1.3-0.3l0-0.5l12.2,0.3l-0.1,3.9l-0.5,0c-0.2-1.2-0.7-2.1-1.3-2.6
		c-0.6-0.5-1.8-0.7-3.5-0.8c-0.7,0-1.1,0-1.2,0.2c-0.2,0.1-0.3,0.4-0.3,0.7l-0.1,4.4c1.2,0,2-0.1,2.5-0.5c0.4-0.4,0.8-1.1,1-2.2
		l0.5,0l-0.2,6.5l-0.6,0c-0.1-1.1-0.4-1.9-0.9-2.3c-0.5-0.5-1.3-0.7-2.5-0.7l-0.1,4.7c0,0.4,0.1,0.7,0.3,0.8
		c0.2,0.2,0.7,0.2,1.4,0.3c1.4,0,2.5-0.2,3.3-0.6c0.9-0.5,1.7-1.3,2.3-2.6l0.6,0L163.5,374.5z"/>
	<path id="XMLID_36_" class="st0" d="M173.1,375.3l0.2-0.4c0.7,0.4,1.3,0.5,1.6,0.4c0.3-0.1,0.6-0.4,0.8-0.9l4.1-8.2
		c0.2-0.5,0.3-0.9,0.1-1.1c-0.2-0.3-0.6-0.6-1.2-1l0.2-0.4l4.8,2.4l-0.3,9.8l0.2,0.1l7.7-6.1l4.8,2.4l-0.2,0.4
		c-0.7-0.3-1.2-0.4-1.5-0.3c-0.3,0.1-0.7,0.4-1,1.1l-3.8,7.6c-0.3,0.6-0.4,1.1-0.3,1.4c0.1,0.3,0.5,0.7,1.1,1l-0.2,0.4l-6.3-3.2
		l0.2-0.4c0.6,0.3,1,0.4,1.4,0.4c0.4,0,0.7-0.3,0.9-0.8l4.2-8.4l-0.1-0.1l-9.7,7.8l-0.5-0.3l0.3-12.3l-0.1,0l-3.9,7.8
		c-0.3,0.6-0.4,1.1-0.3,1.4c0.1,0.4,0.5,0.8,1.3,1.2l-0.2,0.4L173.1,375.3z"/>
	<path id="XMLID_37_" class="st0" d="M201.9,392.6l-9.9-7.5l0.3-0.4c0.5,0.4,0.9,0.5,1.2,0.6c0.4,0.1,0.8-0.1,1.2-0.5l5.6-7.4
		c0.3-0.5,0.4-0.9,0.2-1.3c-0.1-0.2-0.4-0.6-0.9-1l0.3-0.4l9.7,7.4l-2.3,3.1l-0.4-0.3c0.5-1.1,0.7-2.1,0.4-2.9
		c-0.2-0.8-1-1.6-2.4-2.7c-0.5-0.4-0.9-0.6-1.1-0.6c-0.2,0-0.4,0.1-0.7,0.4l-2.7,3.6c0.9,0.7,1.7,1.1,2.3,1c0.6-0.1,1.3-0.5,2.1-1.2
		l0.4,0.3l-3.9,5.2l-0.4-0.3c0.5-1,0.8-1.8,0.7-2.4c-0.1-0.6-0.6-1.3-1.6-2l-2.8,3.7c-0.3,0.3-0.3,0.6-0.2,0.9
		c0.1,0.3,0.4,0.6,1,1.1c1.1,0.8,2.1,1.3,3.1,1.4c1,0.1,2.1-0.1,3.4-0.8l0.5,0.4L201.9,392.6z"/>
	<path id="XMLID_38_" class="st0" d="M203.8,394.2l0.3-0.4c0.6,0.4,1.1,0.6,1.5,0.6c0.3-0.1,0.7-0.3,0.9-0.7l5.4-7.3
		c-0.1-0.9-0.2-1.5-0.3-1.6c-0.1-0.2-0.2-0.4-0.4-0.5l0.3-0.4l3.6,2.7l1.1,10.9l0.1,0.1l3.4-4.6c0.4-0.5,0.6-1,0.5-1.4
		c-0.1-0.4-0.4-0.8-1-1.3l0.3-0.4l3.7,2.7l-0.3,0.4c-0.6-0.3-1-0.5-1.3-0.5c-0.3,0-0.6,0.2-0.9,0.7l-6.7,9.1l-0.5-0.4L212,388
		l-0.1-0.1l-4.5,6.1c-0.3,0.5-0.5,0.9-0.5,1.2c0,0.5,0.3,1,1,1.5l-0.3,0.4L203.8,394.2z"/>
	<path id="XMLID_39_" class="st0" d="M218.3,404.8l2.1-4.2l0.5,0.3c-0.3,1.4-0.3,2.6,0.1,3.6c0.4,0.9,1,1.6,1.9,2.1
		c0.9,0.4,1.6,0.6,2.1,0.3c0.6-0.2,0.9-0.5,1.2-1c0.2-0.5,0.3-1,0.1-1.6c-0.2-0.3-0.5-0.9-1.1-1.6l-1-1.2c-0.9-1.2-1.5-2.2-1.8-2.9
		c-0.2-0.8-0.1-1.6,0.3-2.4c0.4-0.8,1.2-1.5,2.2-1.8c1-0.4,2.2-0.2,3.6,0.5c0.7,0.4,1.3,0.8,1.9,1.3c0.6,0.5,0.9,0.8,1,0.9
		c0.2,0.1,0.4,0.1,0.5,0.1l0.4-0.3l0.6,0.3l-1.9,3.8l-0.5-0.3c0.2-1,0.1-2-0.2-2.9c-0.3-0.9-0.9-1.6-1.9-2.1
		c-0.6-0.3-1.2-0.4-1.8-0.3c-0.5,0.1-0.9,0.4-1.1,0.9c-0.3,0.5-0.3,1-0.1,1.5c0.2,0.5,0.8,1.2,1.7,2.4l1.1,1.3
		c0.5,0.6,0.8,1.2,1,1.7c0.4,1,0.3,2-0.1,2.9c-0.4,0.9-1.2,1.5-2.4,1.9c-1.1,0.4-2.6,0.2-4.2-0.7c-0.4-0.2-0.8-0.4-1.1-0.7
		c-0.4-0.3-0.7-0.6-1-0.9l-0.3-0.3l-0.2-0.2l-0.2-0.1c-0.2-0.1-0.4-0.1-0.5,0l-0.4,0.3L218.3,404.8z"/>
	<path id="XMLID_40_" class="st0" d="M254.9,411.3l-12.4-0.1l0-0.5c0.6,0,1-0.1,1.3-0.2c0.4-0.2,0.6-0.6,0.6-1.1l0.1-9.3
		c0-0.6-0.2-1-0.6-1.1c-0.2-0.1-0.7-0.2-1.3-0.2l0-0.5l12.2,0.1l-0.1,3.9l-0.5,0c-0.3-1.2-0.7-2.1-1.3-2.6c-0.6-0.5-1.8-0.7-3.5-0.7
		c-0.7,0-1.1,0-1.2,0.2c-0.2,0.1-0.3,0.4-0.3,0.7l-0.1,4.5c1.2,0,2-0.2,2.5-0.6c0.4-0.4,0.8-1.1,1-2.2l0.5,0l-0.1,6.5l-0.5,0
		c-0.1-1.1-0.4-1.9-0.9-2.3c-0.5-0.4-1.3-0.7-2.5-0.7l-0.1,4.7c0,0.4,0.1,0.7,0.3,0.8c0.2,0.2,0.7,0.2,1.4,0.2
		c1.4,0,2.5-0.2,3.3-0.7c0.9-0.5,1.6-1.4,2.3-2.7h0.6L254.9,411.3z"/>
	<path id="XMLID_43_" class="st0" d="M261.7,401.4l0.2,0l2.9,3.9l-4,0.9L261.7,401.4z M262.2,410.5l-0.1-0.5
		c-0.5,0.1-0.8,0.1-1.1,0.1c-0.4,0-0.7-0.2-0.7-0.5c-0.1-0.2,0-0.6,0-1.1c0-0.2,0.1-0.8,0.3-1.6l4.7-1l0.8,1
		c0.2,0.2,0.3,0.4,0.4,0.6c0.2,0.3,0.3,0.5,0.3,0.6c0.1,0.3,0,0.5-0.2,0.7c-0.2,0.1-0.6,0.3-1.3,0.5l0.1,0.5l6.7-1.5l-0.1-0.5
		c-0.5,0.1-0.9,0-1.2-0.2c-0.3-0.3-0.9-0.9-1.6-1.9l-6.8-8.9l-0.6,0.1l-2.4,11.3c-0.2,0.9-0.4,1.5-0.5,1.8c-0.2,0.5-0.6,0.7-1.1,0.9
		l0.1,0.5L262.2,410.5z"/>
	<path id="XMLID_46_" class="st0" d="M274.9,394.9c-0.2-0.4-0.2-0.6-0.2-0.8c0.1-0.3,0.3-0.5,0.9-0.7c1.5-0.7,2.9-0.5,4.2,0.7
		c0.8,0.7,1.5,1.7,2,2.9c0.9,2.1,1.2,3.7,0.8,4.7c-0.4,1.1-1.2,1.8-2.3,2.4c-0.4,0.2-0.7,0.2-0.9,0.1c-0.2-0.1-0.4-0.3-0.6-0.7
		L274.9,394.9z M280.8,404.6c2.2-1,3.7-2.4,4.4-4.2c0.7-1.6,0.6-3.2-0.1-4.8c-0.8-1.8-2-2.9-3.6-3.5c-1.8-0.6-3.8-0.4-6.2,0.7
		l-5.9,2.6l0.2,0.5c0.5-0.2,0.9-0.3,1.2-0.3c0.4,0,0.8,0.3,1,0.7l3.9,8.6c0.2,0.5,0.2,0.9-0.1,1.2c-0.2,0.2-0.5,0.4-1,0.7l0.2,0.4
		L280.8,404.6z"/>
	<path id="XMLID_47_" class="st0" d="M300.6,392l-10.2,7.1l-0.3-0.4c0.5-0.4,0.8-0.7,0.9-0.9c0.2-0.4,0.2-0.8-0.2-1.3l-5.3-7.6
		c-0.3-0.5-0.7-0.7-1.2-0.6c-0.3,0-0.6,0.2-1.2,0.6l-0.3-0.4l10-7l2.2,3.2l-0.4,0.3c-0.9-0.9-1.8-1.3-2.6-1.3
		c-0.8,0-1.9,0.5-3.3,1.5c-0.5,0.4-0.8,0.7-0.9,0.9c-0.1,0.2,0,0.4,0.2,0.7l2.6,3.6c1-0.7,1.6-1.3,1.7-1.9c0.1-0.6-0.1-1.4-0.5-2.4
		l0.4-0.3l3.7,5.3l-0.4,0.3c-0.7-0.8-1.4-1.3-2.1-1.4c-0.6-0.1-1.5,0.2-2.4,0.9l2.7,3.8c0.2,0.3,0.5,0.5,0.8,0.5
		c0.3,0,0.7-0.2,1.3-0.6c1.1-0.8,1.9-1.6,2.3-2.5c0.4-0.9,0.5-2.1,0.3-3.5l0.5-0.3L300.6,392z"/>
	<path id="XMLID_48_" class="st0" d="M303.2,390l-0.3-0.4c0.6-0.5,1-0.9,1-1.3c0-0.3-0.1-0.7-0.4-1.1l-5.4-7.3
		c-0.3-0.4-0.6-0.6-1-0.6c-0.3,0-0.8,0.2-1.4,0.6l-0.3-0.4l4.3-3.2l8.7,4.7l0.1-0.1l-2-9.6l4.3-3.2l0.3,0.4c-0.5,0.5-0.9,0.9-1,1.2
		c-0.1,0.3,0.1,0.8,0.5,1.4l5.1,6.8c0.4,0.6,0.8,0.9,1.1,0.9c0.3,0,0.8-0.2,1.4-0.6l0.3,0.4l-5.7,4.2l-0.3-0.4
		c0.5-0.4,0.8-0.8,1-1.1c0.2-0.3,0.1-0.7-0.3-1.2l-5.6-7.5l-0.1,0.1l2.6,12.2l-0.5,0.3l-10.8-5.8l-0.1,0.1l5.2,7
		c0.4,0.5,0.8,0.8,1.2,0.9c0.4,0.1,0.9-0.1,1.7-0.6l0.3,0.4L303.2,390z"/>
	<path id="XMLID_49_" class="st0" d="M327.7,375.6l0-0.5c0.8-0.1,1.3-0.2,1.5-0.5c0.2-0.3,0.3-0.7,0.3-1.2l-0.7-9.1
		c0-0.5-0.2-0.9-0.5-1c-0.3-0.1-0.8-0.2-1.5-0.2l0-0.5l5.3-0.4l4.9,8.6l0.2,0l3.5-9.2l5.3-0.4l0,0.5c-0.7,0.1-1.2,0.3-1.4,0.5
		c-0.3,0.2-0.3,0.7-0.3,1.4l0.7,8.5c0,0.7,0.2,1.1,0.5,1.3c0.3,0.2,0.8,0.3,1.5,0.3l0,0.5l-7,0.5l0-0.5c0.6-0.1,1.1-0.2,1.4-0.4
		c0.3-0.2,0.4-0.6,0.4-1.2l-0.7-9.4h-0.2l-4.3,11.7l-0.6,0l-6.1-10.6l-0.1,0l0.7,8.7c0.1,0.6,0.2,1.1,0.5,1.4
		c0.3,0.3,0.9,0.4,1.8,0.4l0,0.5L327.7,375.6z"/>
	<path id="XMLID_50_" class="st0" d="M348.9,361.3l7.2,0v0.5c-0.8,0-1.4,0.1-1.6,0.4c-0.3,0.2-0.4,0.7-0.4,1.4l0,6.4
		c0,1,0.1,1.7,0.4,2.3c0.5,1,1.4,1.5,2.7,1.5c1.6,0,2.7-0.6,3.3-1.7c0.3-0.6,0.5-1.4,0.5-2.5l0-5.9c0-0.7-0.1-1.2-0.4-1.4
		c-0.3-0.3-0.8-0.4-1.7-0.5v-0.5h4.7v0.5c-0.7,0.1-1.1,0.3-1.3,0.4c-0.2,0.2-0.3,0.6-0.3,1.2l0,6.2c0,1.6-0.4,2.9-1.3,3.8
		c-0.9,0.9-2.2,1.3-4.1,1.3c-2.4,0-4.1-0.7-5-2c-0.5-0.7-0.7-1.6-0.7-2.7l0-6.4c0-0.7-0.1-1.2-0.3-1.4c-0.2-0.2-0.7-0.3-1.4-0.4
		L348.9,361.3L348.9,361.3z"/>
	<path id="XMLID_51_" class="st0" d="M366.1,365.1l-0.2-3.9l12.8-0.8l0.2,3.9l-0.6,0c-0.3-1.4-0.9-2.3-1.9-2.7
		c-0.5-0.2-1.3-0.3-2.4-0.3l0.6,10.1c0,0.7,0.2,1.2,0.5,1.4c0.3,0.2,0.9,0.3,1.7,0.2l0,0.5l-7.6,0.4l0-0.5c0.8,0,1.4-0.2,1.6-0.4
		c0.3-0.3,0.4-0.7,0.3-1.4l-0.6-10.1c-1,0.1-1.8,0.3-2.3,0.6c-1,0.6-1.5,1.5-1.5,2.9L366.1,365.1z"/>
	<path id="XMLID_54_" class="st0" d="M384.4,363l0.2,0l3.3,3.6l-3.9,1.2L384.4,363z M385.7,372l-0.2-0.5c-0.5,0.1-0.8,0.2-1.1,0.2
		c-0.4,0-0.7-0.1-0.8-0.4c-0.1-0.2-0.1-0.6-0.1-1.1c0-0.2,0.1-0.8,0.1-1.6l4.5-1.4l0.9,0.9c0.2,0.2,0.3,0.4,0.5,0.5
		c0.2,0.3,0.3,0.5,0.4,0.6c0.1,0.3,0.1,0.5-0.1,0.7c-0.2,0.2-0.6,0.3-1.3,0.6l0.2,0.5l6.5-2.1l-0.2-0.5c-0.5,0.2-0.9,0.1-1.2-0.1
		c-0.4-0.2-1-0.8-1.8-1.7l-7.6-8.2l-0.6,0.2l-1.3,11.5c-0.1,0.9-0.2,1.5-0.3,1.8c-0.2,0.4-0.5,0.8-1,1l0.1,0.5L385.7,372z"/>
	<path id="XMLID_55_" class="st0" d="M391.9,360.5l-2.1-3.3l10.7-7l2.2,3.2l-0.5,0.3c-0.9-1-1.9-1.5-3-1.4c-0.6,0.1-1.3,0.4-2.2,0.9
		l5.6,8.5c0.4,0.6,0.8,0.9,1.1,0.9c0.4,0.1,0.9-0.2,1.6-0.6l0.3,0.4l-6.3,4.2l-0.3-0.4c0.7-0.5,1.1-0.9,1.2-1.2
		c0.1-0.3,0-0.8-0.4-1.4l-5.6-8.5c-0.8,0.6-1.4,1.2-1.8,1.7c-0.6,1-0.5,2.1,0.1,3.3L391.9,360.5z"/>
	<path id="XMLID_58_" class="st0" d="M412.2,352.2c-0.9-0.3-2-0.8-3.2-1.7c-1.2-0.9-2.1-1.7-2.6-2.4c-1.1-1.5-1.1-2.9-0.2-4.2
		c0.7-0.9,1.6-1.4,2.9-1.3c1.2,0,2.7,0.7,4.4,1.9c1.2,0.9,2.1,1.7,2.7,2.5c1.1,1.5,1.1,2.9,0.2,4.2
		C415.3,352.3,413.9,352.7,412.2,352.2z M404,349c0.2,1.9,1.2,3.4,2.8,4.6c1.5,1.1,3.1,1.4,5,1.1c2-0.4,3.6-1.5,4.9-3.3
		c1.2-1.7,1.8-3.5,1.6-5.4c-0.2-1.9-1.1-3.5-2.8-4.7c-1.7-1.2-3.4-1.5-5.3-1.1c-1.8,0.4-3.4,1.5-4.6,3.3
		C404.3,345.2,403.8,347.1,404,349z"/>
	<path id="XMLID_59_" class="st4" d="M209.8,249c0,0-1.3-0.2-1.3-1.7s1.3-1.9,1.3-1.9h6.1l0,3.6H209.8z"/>
	<polygon id="XMLID_60_" class="st4" points="240.2,299.3 234.1,303.4 240.1,307.5 238.7,314.8 245.9,313.4 249.9,319.6 254,313.5 
		261.2,315 259.9,307.5 266,303.5 260,299.5 261.5,292.1 254.2,293.6 249.9,287.6 246,293.5 238.9,292.1 	"/>
	<polygon id="XMLID_61_" class="st4" points="174.2,256.3 168.1,260.4 174.1,264.6 172.7,271.8 179.9,270.4 183.9,276.6 188,270.5 
		195.2,272 193.9,264.6 200,260.5 193.9,256.5 195.5,249.2 188.2,250.6 183.9,244.6 180,250.6 172.8,249.1 	"/>
	<polygon id="XMLID_62_" class="st4" points="306.1,256.2 300,260.3 306,264.5 304.6,271.7 311.8,270.3 315.8,276.5 320,270.4 
		327.1,271.9 325.8,264.5 331.9,260.4 325.9,256.4 327.4,249.1 320.1,250.5 315.8,244.5 311.9,250.5 304.8,249 	"/>
	<path id="XMLID_63_" class="st0" d="M275.6,273.5v-32.8c0,0-6.2-1.5-8.8-1.4c-3.3,0-12.1,1-15.4,3.6c0,2.2,0,29.4,0,29.4
		s5.5-1.5,10.2-1.5C268.8,270.7,275.6,273.5,275.6,273.5z"/>
	<path id="XMLID_64_" class="st0" d="M281.7,276.5v-32.2c0,0-1.7-1.6-3.2-2.2c0,1.6,0,32.2,0,32.2S281.4,275.7,281.7,276.5z"/>
	<path id="XMLID_69_" class="st3" d="M267.6,265.2c-4.7-1.7-10.2,0.1-10.2,0.1l-0.5-1.4c0,0,6.1-1.9,11.2-0.1L267.6,265.2z
		 M267.6,259.5c-4.7-1.5-10.2,0.4-10.3,0.4l-0.5-1.5c0,0,6-2,11.2-0.4L267.6,259.5z M267.6,254.2c-4.2-1-10.3,0.7-10.3,0.7l-0.5-1.5
		c0,0,6.5-1.8,11.1-0.7L267.6,254.2z M267.6,248.7c-4.2-1-10.3,1-10.3,1l-0.5-1.5c0,0,6.5-2.1,11.1-1L267.6,248.7z"/>
	<path id="XMLID_70_" class="st2" d="M222,328.1c-0.9,1-0.5,2.2-0.7,3.2c-0.2,1,0.8,3.5,2.4,4.7c1.6,1.2,5,0.6,3.5,1.1
		c-1.5,0.5-7.7,3-7.7,4.3c0,1.4,6.6-0.9,7.1-0.4c0.5,0.5,1.1,0.6-0.4,1.7c-1.5,1-11.4,2.6-11.3,5c0.1,2.3,0.5,8.1,1.7,8
		c3.8-7.5,18.3-11.8,15.4-9.8c-0.7,0.8-6.7,5.3-4.9,8.1c0.7,1,4.5,8.5,5.2,8.7c0.7,0.2-1.1-13.7,8.8-17c3.6-1.2-10.7,9.8,8.2,24.1
		c0-1.8,0-24.6,0-24.6c-2.7-3.9-7.1-8-9.1-9.5c-3.2-2.4-8.3-3.7-10.7-3.9C222.8,331.5,222,328.1,222,328.1z"/>
	<path id="XMLID_71_" class="st2" d="M172.9,113.4c0,0,3.5-2.7,5.3-3.8c1.6-1,4.7-3.3,6.1-4.4c0.9-0.7,4.9-3.9,3.8-3.9
		c0,0-5.3,0.2-7.1,1.9c-0.2-1,3.8-7.4,6-8.6c-0.7-0.9-1-1.3-2.7-1.2c-7.2,0.3-10,6.7-11.9,8.1c-1-0.3-2.1-6.2-2.2-6.9
		c-2.1,1.2-3.4,3.6-3.6,5c-0.2,1.2-0.4,7.7-0.5,9.3c-0.1,0.9,0.4,5-2.9,8.2c-1.2,1.2-2,0.8-2.4,0.7c-1-0.3-0.3-0.7,0.3-1.4
		c0.7-0.7,2.4-3.4,2.2-4.8c-0.2-1.4-1.4-4.9-6-5.5c-2.5-0.3-3.9-0.2-5.5,1.4c1.5,1,5.8,2.9,6,6.5c0.2,3.6-3.3,6.9-5.5,8.1
		c-2.2,1.2-6.5,2-9.8,2c-3.3,0-5.5-0.3-7.3-1.4c-1.3-0.9-1.7-2.7-0.6-4.2c1-1.3,1.1-2,1.5-0.6c0.9,2.7,4.9,1.8,6,1.7
		c2.2-0.2,5.2-2.8,4.4-5.6c-0.5-1.7-1.2-4.4-7.4-4.4c-5.7,0-13.5,3.6-12.7,13.6c0.2,2.9,3.3,8.5,13.5,9.7c0,0,3.8,0.6,5.7,0.6
		c0,0,2.5,0.1,7.1-1.2c7.2-1.9,41.3-25.4,49.1-19.3c2.2,2.6,0.8,4.6,0.2,5.3c-0.3,0.3-0.7-2.3-3-2.8c-1.7-0.4-5.6,1-5.5,4.8
		c0.2,5.6,5.9,5.7,6.3,5.7c6.6,0.1,9.2-6.9,9.2-11.9c0-5-2.8-10.4-9.8-10.4c-5.6,0-8.9,1.6-10.5,2.5c-1.9,1.1-10.3,5.6-13.1,7
		c-2.5,1.3-2.7,1.6-2.7,1.6C172.5,114.4,172.9,113.4,172.9,113.4z"/>
	<path id="XMLID_72_" class="st2" d="M111.4,262.2c0.4,0.7,1.4,1.5,2,1.9c0.6,0.4,9.3,3.9,10.3-8.7c0.3-4.5-3.8-17.5-4.6-21.4
		c-0.8-4.2-1.2-14.6,5.5-18.3c5.5-2.6,10.5,1.2,10.8,5.3c0.3,4.1-2,5-3.4,5.4c-1.8,0.7-6.1-0.3-6.3-3.4c0,0-1.5,3.6,0.8,6
		c0.4,0.4,1.6,1.3,3.5,1.7c7.1,0.6,9-3,9.9-4.4c1.6-2.5,1.9-5.3,1.9-9.1c-0.1-5-4-11.5-11.3-11.5c-4.1,0.4-6.9,1.7-8.1,4.1
		c-1.4-2.2-1.6-3.8-0.5-5.7c1-1.9,2.9-3.8,6.7-4.5c-0.2-3.6-7.4-5.3-9.1-5.2c-2.6,0.2-2.6,0.4-4.8,1.2c-0.3-1.4-0.5-4.5,3.4-6.9
		c9.2-5.6,14.2,5.9,14.4,1.4c0.3-7.1,7.4-7.5,7.4-7.5s-1,6-0.6,6.8c0.5,2.1,5.3,6.4,6.9,11.2c1.5,4.8,1.2,7.5-0.2,11.2
		c0.2,1.6,0.5,1.6,0.5,1.6c1.7-2.1,2.9-5.5,3.4-8.8c0.5-3.3,1.8-9.3-1.7-22.3c-3.4-13.1-11.2-15.3-12.7-15.3c-2.2,0-3.8,0.8-4.6,1.7
		c-0.8,0.8-1.6,2.6-0.5,4c0.7,0.9,1.6,0.4,2.3-0.6c1-1.4,2.5-1.4,3.6-1.2c1,0.2,2.9,1.5,2.9,3.4c0,1.9-2.2,5.5-6.3,5.9
		c-4.1,0.3-7.6-2.8-8.1-3.8c-0.5-1-1.8-8.1-1.5-9.2c2.5-10.1,13.1-12,12.9-18.9c-0.1-3.9-0.8-4-1.2-6.3c-1-5.1,2.5-8.8,2.5-8.8
		c1.2,0.2,8.2,1,10.5,1c0,0,1.8,4.2,7.8,6.8c3.9,1.7,5.6,1.5,8,0.8c0.2,1.2-0.4,1.9-1.6,2.5c-2.9,1.6-2.4,2.6-2.4,3.2
		c0,0.5,4.3,3.2,4.3,9.7c-1.2-0.3-6.9-6.1-11-6c-1,0.9,0.3,2,0.9,3.2c0.5,1.2,1.4,3.4,1.4,5.5c-1.9-1-4.3-2.6-6.7-2.6
		c-2.4,0-6,2.2-6,3.4c2.8,2.4,13.9,7.9,16.8,19.1c2.9,11.2,1.7,26.3-0.9,33.5c-2.6,7.2-7.4,17-17.5,20.8c-3.5,1.2-5.9,0.8-6.5,0.7
		c-2.2-0.4-4.6-1.9-5.3-2.2c-0.5,0.7,0.7,3.7,2.7,7.2c1.3,2.3,3.7,6.1,9.6,6.7c4.2,0.1,6.3-5.2,2.9-6.3c0,1.6-0.4,2.2-1.7,2.9
		c-1.1,0.6-2.5-0.2-3-1c-0.5-0.8-0.5-3.2,0.8-4.3c1-0.8,1.6-1.6,4.4-1.4c2.7,0.2,6.8,5.5,3.6,10.5c-0.7,1.1-2.5,3.9-6.5,4.3
		c-2.9,0.2-7.8-1.7-9.7-3.4c-1.8-1.6-1.8-2.5-4-2.6c-1.2,1.4,4,5.7,5,6.3c4.1,2.6,5.9,3,10.2,4.2c4.7,1.3,5,3.6,6.4,6.8
		c-2.1,0-2.8,0.2-4.5,0.5c-1.6,0.3-2.4,1.2-2.6,1.7c-1.4,4.6,0.3,10.7,0.8,14.2c-0.7,1.6-7.4,4.2-9.2,0.9c1.9-2.5,4.1-6.5,2.5-11.8
		c-2.1-5.5-5.3-6.5-5.3-6.5s-1.6,3.7-3.4,5.4c-1.3,1.5-5.5,5-13.1,3.6c-3.1-0.5-6.4-3.3-7.8-5.9L111.4,262.2z"/>
	<path id="XMLID_73_" class="st2" d="M107.4,265.1c-0.5-0.7-1-2.4-1.1-3.5c-0.1-1.9,0.4-8.4,6.6-9c3.5-0.4,6,1.8,6,4.9
		c0,3.1-3.2,3.9-5,3.4c-0.5-0.2-2.1-1.6-1.5-3.4c0.3-1-1.4,0.1-1.6,1.9c-0.1,1.2,0.1,1.8,0.5,2.8L107.4,265.1z"/>
	<path id="XMLID_74_" class="st2" d="M125.2,177.2c0,0-4.1-8.8-4.5-9.1c-1.2-2.9-2.5-4.3-2-7c0.5-2.6,2.9-3.7,4.3-5.2
		c-1.1-1.2-3.2-1.5-3.6-1.3c-0.5,0.2-5.5,1.3-4,9c-3.8-4.3-5.1-4.3-7.2-3.9c-0.7,0.1-3.4,0.3-5.3,3.4c2.6,0.6,6.7,1.8,6.7,3.3
		c-1.1,1.1-4.9,4.2-5.1,6.3c-0.4,3.4,1.2,4.4,2.2,4.8c0.8-4.3,2.7-6.2,4.8-6.5c1.8-0.2,4.1-0.3,7.1,1.4
		C122.1,174.3,125.2,177.2,125.2,177.2z"/>
	<path id="XMLID_75_" class="st2" d="M244.7,87.2c0,0,1.5-4.6,4.6-6.4c0,0,1.3,19.1-4.2,25c-5.5,5.9-11.1,6.5-14,7.2
		c-12,2.9-17,4.8-21.2,8c1-16.4-0.4-21.2,13.2-27.5c0.1,0.3-3.3,7.6-3.8,11.8c-0.2,1.6-0.2,1.6-0.2,1.6c0.5,0.4,1.6,0.2,2.1-0.5
		c0.4-0.7,7-10.3,11.1-10.9c0.3,0.3-1.7,2.3-2.4,4c-0.5,1.1-0.9,3.2-0.2,3.7c1.2,0.8,2.9,0.3,4.2-0.5c0.7-0.4,5.1-2.6,4.7-10.7
		c-0.2-0.6-0.8-2.9-3.8-3.5c0.6-1.7,2.2-2.3,4-1.8c2,0.6,3.8,2.5,4.8,2.7L244.7,87.2z"/>
	<path id="XMLID_76_" class="st2" d="M277.8,328.2c0.9,1,0.5,2.2,0.7,3.2c0.2,1-0.8,3.5-2.4,4.7c-1.5,1.2-5,0.6-3.5,1.1
		c1.6,0.5,7.7,3,7.7,4.3c0,1.4-6.6-0.9-7.1-0.4c-0.5,0.5-1.1,0.6,0.4,1.7c1.5,1,11.4,2.6,11.3,5c-0.1,2.3-0.5,8.1-1.7,8
		c-3.8-7.5-18.3-11.8-15.4-9.8c0.8,0.8,6.7,5.4,4.9,8.1c-0.7,1-4.5,8.5-5.2,8.7c-0.7,0.2,1.1-13.7-8.8-17
		c-3.6-1.2,10.7,9.8-8.2,24.1c0-1.8,0-24.6,0-24.6c2.7-3.9,7.1-8,9.1-9.5c3.2-2.4,8.3-3.7,10.7-3.8
		C277,331.5,277.8,328.2,277.8,328.2z"/>
	<path id="XMLID_77_" class="st2" d="M326.9,113.5c0,0-3.5-2.7-5.3-3.8c-1.6-1-4.7-3.3-6.1-4.4c-0.9-0.7-4.9-3.9-3.8-3.9
		c0,0,5.3,0.2,7.1,1.9c0.2-1-3.8-7.4-6-8.6c0.7-0.8,1-1.3,2.8-1.2c7.2,0.3,10,6.7,11.8,8.1c1-0.3,2.1-6.2,2.2-6.9
		c2.1,1.2,3.4,3.6,3.6,5c0.2,1.2,0.3,7.7,0.5,9.3c0.1,0.9-0.4,5,2.9,8.2c1.2,1.2,2,0.8,2.4,0.7c1-0.3,0.3-0.7-0.3-1.4
		c-0.7-0.7-2.4-3.4-2.2-4.8c0.2-1.4,1.4-4.9,6-5.5c2.5-0.3,3.9-0.2,5.5,1.4c-1.5,1-5.8,2.9-6,6.5c-0.2,3.6,3.3,6.9,5.5,8.1
		c2.2,1.2,6.5,2,9.8,2c3.4,0,5.6-0.3,7.3-1.4c1.3-0.9,1.7-2.7,0.6-4.2c-1-1.3-1.1-2-1.5-0.6c-0.9,2.7-4.9,1.8-6,1.7
		c-2.2-0.3-5.2-2.8-4.4-5.6c0.5-1.7,1.2-4.4,7.4-4.4c5.7,0,13.5,3.6,12.7,13.6c-0.2,2.9-3.3,8.5-13.5,9.7c0,0-3.8,0.6-5.7,0.6
		c0,0-2.5,0.1-7.1-1.2c-7.2-2-41.3-25.4-49.1-19.3c-2.3,2.6-0.8,4.6-0.2,5.3c0.3,0.3,0.7-2.3,3-2.8c1.7-0.4,5.6,1,5.5,4.8
		c-0.2,5.6-6,5.7-6.3,5.7c-6.6,0.1-9.2-6.9-9.2-11.9c0-5,2.8-10.4,9.8-10.4c5.6,0,9,1.6,10.5,2.5c1.9,1,10.3,5.6,13,7
		c2.5,1.3,2.7,1.6,2.7,1.6C327.3,114.5,326.9,113.5,326.9,113.5z"/>
	<path id="XMLID_78_" class="st2" d="M368.8,271.3c0,0,9.2,8.6,7.1,16.1c-0.2,0.6-1.5,5.9-8.8,7.5c-1.2-0.5-2.2-2.4-3.3-2.4
		c-2.2-0.2-7.4,8.6-8.6,10.3c-1.2,1.9-3.6,5.4-3.6,7.1c0,1.7,7.2-3.5,10.1-6.3c2.8-2.8,2-5.9,4.4-5.9c0.5,2.2,0.1,4,0.6,4.2
		c0.5,0.2,5.6-5,9-4.4c3.4,0.7,7.9,5.7,7.4,9.2c-1.1,0.8-6.5-2.2-7.9-2.4c-1.2-0.2-2.8,0.2-2.2,1.8c1.4,0.7,6,6.1,4.6,6.9
		c-1.4,0.8-1.8-2-11.7-1.9c-6.2,0.5-8.2,3.4-8.1,5.6c0,1.4,0.3,2.7,1.1,2.9c1.5,0.5,3.5,0.5,9-0.6c4.7-0.9,4.8-1.9,4.6,0.1
		c-0.1,1.1-4.1,2.6-4.1,4.5c0,1.9,10.1,4.4,2.5,14.7c-3.9,4.2-12.3,4.4-14.4,3.3c-0.5-1,6-4.1,5.2-8.2c-0.1-0.7-1.5-3.9-5.4-4.2
		c-2.4-0.2-0.3,4.6-5.3,5c0-6.4-3.3-6.1-3.3-6.1s-1.8-0.3-6.2,1.3c-3.2,1.2-5.7,1.7-6.7,3.9c-1,2.2-0.2,1.2,1.4,1.2
		c1.6,0,3.3-1.2,5.4-0.9c2.1,0.3,4.1,2.6,4.6,5c0.5,2.4,0.9,7.7-1.7,8.4c0,0-1.3-5-8.4-8c-2.1-0.9-5.1-0.8-8.4,0.4
		c-3.3,1.2-15.1,6.9-26.9,6.9c-11.8,0-19.8-8.7-21.3-12c-5.4-11.7,2.8-18.6,8.4-18.4c10.1,0.4,10.9,8,10.5,9.7
		c-0.4,1.8-1.1,5.8-5.8,4.9c-3.1-0.6-3.3-4.8-3.3-4.8c-2.8,0.5-2.8,3.3-2.7,4c0.7,4.2,5.4,5.4,8,5.8c1.9,0.3,5.3,0.4,7.6-0.1
		c0,0,16-1.8,26-8.2c12.3-7.8,15.6-13.7,20.1-23.5c5.9-12.1,8.5-27.6,8.5-27.6s5.8,4.7,5.5,4.8C369.5,279.3,368.8,271.3,368.8,271.3
		z"/>
	<path id="XMLID_79_" class="st2" d="M131,271.2c0,0-9.2,8.6-7.1,16.1c0.2,0.6,1.5,5.9,8.8,7.5c1.2-0.5,2.2-2.4,3.3-2.4
		c2.2-0.2,7.4,8.6,8.6,10.3c1.2,1.9,3.6,5.4,3.6,7.1c0,1.7-7.2-3.5-10.1-6.3c-2.8-2.8-2-5.9-4.4-5.9c-0.5,2.2-0.1,4-0.6,4.2
		c-0.5,0.2-5.6-5-9-4.4c-3.4,0.7-7.9,5.8-7.4,9.2c1.1,0.8,6.5-2.2,7.9-2.4c1.2-0.2,2.8,0.2,2.2,1.8c-1.4,0.7-6,6.1-4.6,6.9
		c1.4,0.8,1.8-2,11.7-1.9c6.2,0.5,8.2,3.3,8.1,5.6c0,1.4-0.3,2.7-1.1,2.9c-1.5,0.5-3.5,0.5-9-0.6c-4.7-0.9-4.8-2-4.6,0.1
		c0.1,1.1,4.1,2.6,4.1,4.5c0,1.9-10.1,4.4-2.5,14.7c3.9,4.2,12.3,4.4,14.4,3.3c0.5-1-6-4.1-5.2-8.2c0.1-0.7,1.5-3.9,5.4-4.2
		c2.4-0.2,0.3,4.6,5.3,5c0-6.4,3.3-6.1,3.3-6.1s1.8-0.3,6.2,1.3c3.2,1.2,5.7,1.7,6.7,4c1,2.2,0.2,1.2-1.4,1.2
		c-1.5,0-3.3-1.2-5.4-0.9c-2.1,0.3-4.1,2.6-4.6,5c-0.5,2.4-0.9,7.7,1.7,8.4c0,0,1.3-5,8.4-8c2.1-0.9,5.1-0.8,8.4,0.4
		c3.3,1.2,15.1,6.9,26.9,6.9c11.8,0,19.8-8.7,21.3-12c5.4-11.7-2.7-18.6-8.4-18.4c-10.1,0.4-10.9,8-10.5,9.7
		c0.4,1.8,1.1,5.8,5.8,4.9c3.1-0.6,3.3-4.8,3.3-4.8c2.8,0.5,2.8,3.3,2.7,4c-0.7,4.2-5.4,5.4-8,5.8c-1.9,0.3-5.3,0.4-7.6-0.1
		c0,0-16-1.8-26-8.2c-12.3-7.8-15.6-13.7-20.1-23.5c-5.9-12.1-8.5-27.6-8.5-27.6s-5.8,4.7-5.5,4.8C130.3,279.3,131,271.2,131,271.2z
		"/>
	<path id="XMLID_80_" class="st2" d="M255.1,87.3c0,0-1.4-4.8-4.5-6.5c0,0-1.5,19.1,4.1,25.1c5.5,5.9,11.1,6.5,14,7.2
		c12,2.9,17,4.8,21.2,8c-1-16.4,0.4-21.2-13.2-27.5c-0.1,0.3,3.3,7.6,3.8,11.8c0.2,1.6,0.2,1.6,0.2,1.6c-0.5,0.4-1.6,0.2-2.1-0.5
		c-0.4-0.7-7-10.3-11.1-10.9c-0.3,0.3,1.7,2.3,2.4,4c0.5,1.1,0.9,3.2,0.2,3.7c-1.2,0.8-2.9,0.3-4.2-0.5c-0.7-0.4-5.1-2.6-4.7-10.8
		c0.2-0.6,0.8-3,3.8-3.5c-0.6-1.7-2.2-2.3-4-1.8c-2,0.6-3.8,2.5-4.8,2.7L255.1,87.3z"/>
	<path id="XMLID_81_" class="st4" d="M200.9,172.3c0.9,0.3,3.3,2.4,3.8,3.1c2.3-0.6,22.2-10.3,23.6-12c1.1-1.7,1.2-3.4,1.7-3.1
		c3.1,1.7,4.5-0.6,6.7-2.8c2.9-2.9,5.3-5.3,5.6-5.8c4,0,44.7,0,44.7,0s9.5,0.3,10.2-3.4c0.4-3.6-4.3-4.2-8.1-4.2
		c-3.8,0-14.3,1.4-18.3,2.7c-3.6,0.9-7.1,2.7-11.4,2.7c-4.3,0-11.5-1.3-12.2-6.1c-0.8-4.8,2.3-6.6,6.4-7.7c4.2-1.1,3.4,0,2.6-0.8
		c-0.8-0.8-0.6-0.7-0.6-1.7c0.2-3.7,5.2-5.9,6.7-5.9c1.5,0-3.6,4.5-2,7.4c0.4,0.7,0.6-4.6,11.5-4.1c1.5,0.1-9.3,6.9-8.1,6.7
		c6.4-1.1,6.6,2.2,1.5,4c-0.9,0.3-7.4,1.2-6.3,0.7c1.4-0.6,2.8-1.7,2.9-2.9c0.2-2.1-4.3-1.3-5.2-1.1c-1,0.2-4.9,1-5,4.1
		c0.1,1.9,2.4,3.2,5.6,3.5c6.4-0.2,7.8-1.2,10.1-1.9c2.7-0.8,13-4.1,20.7-4.2c7.8-0.2,12.8,1.3,14.8,4c3.1,4.2,2.2,7.5,0.8,9.2
		c-1.3,1.7-6.8,2.9-6.8,2.9c0,2.2,1.1,3.7,2.1,4.5c1,0.8,5.5,2.4,6.7,2.4c1.1,0,5.1-0.3,5.1,0.3c0,0.6-1.7,2.2-4.2,3.6
		c-0.7,0.4-2,5-2,5l2.5,3.6c0,0-10.6,4.8-5.6,5.6c4.2,0.7,4,3,4,4.1c-0.1,0.9-1.7,2.3-2.8,2.3c-1.1,0-3.8-1.1-4.2-1.7
		c-1.3,1.5-2.5,4-4.5,3.9c-1.9,0-4.7-2-4.8-3.9c0-1.5,1.7-3.4,3.1-3.9c-0.6-0.6-6.3-0.1-3.4-4.5c1.2-1.8,4.2-0.9,5.3,0.6
		c0.9,1.3,2-3.3,2-3.3l1.3-5c0,0-8.2,0.3-9.5,0c-1.3-0.3-4.3-0.7-7.5-4.7c-3.2-4-3.1-4.6-5.6-4.5c-2.5,0.2-8.6,1.5-14.3,6.7
		c-4.1,5.9-12,4.2-15.3,2.3c-2.5-1.4-1.7,0.2-2.3-0.9c-0.6-1.1-1.5-4-2.3-4c-0.8,0-1.3,1.1-1.1,1.9c0.2,0.8,1.1,2.1,0.9,3
		c-0.2,0.9,0.2,2.5-1.3,3.2c-1.5,0.6-1.3,5.2-2.6,5.2c-1.3,0-5.2-3-7.3-2.8c-2.1,0.2-5.3,1.1-6.4,3.1c-3.2,0-9.8-0.6-9.2,4.2
		c-3.9-1.9-5.8-2.4-6.6-0.3c-0.8,2.2,2.1,5-2.6,5.6c-1.3,0.2-2.8-1.2-3-1.9c-0.5-1.4,0.3-3-0.6-2.6c-3.7,1.7-5.9,1.1-5.9,1.1
		c-1.7,0.2-5.3-4.2,0-5.6c2.3-0.6,3.6-0.6,3.6-0.6s-2.9-1.3-2.5-3.3C196.9,170.2,200.9,172.3,200.9,172.3z"/>
	<path id="XMLID_82_" class="st4" d="M214.6,160l5,4.1l-11.2,6.1c0,0,0.4-0.9-3.3-3.6c-3-2.1-8.8-2.1-8.8-2.1s4.4-1.9,3.3-2.4
		c-1.8-0.8-3.9-2.9-4-1.9c0-0.2-6,6.9-7.8-0.8c-1-3.9,4.3-3.1,5-3.7c-0.4-1.4-2.5,0.9-4.2-2.4c-2-4.1,2.2-6.1,4.5-5.9
		c3.1,0.4,2.5,4,3.3,4.5c0.7,0.5,0.2-2.1,2.6-2.4c1.5,0,2.1,0.4,2.9,1.2c0.1,0.1,0.3,0.3,0.4,0.5c0.8,1.1,0.6,1.7,0.2,3.2
		c-0.4,1.6-1.5,1.2-1.3,1.7c0.2,0.5,2.1,2.5,3.2,3.1c1.1,0.6,5.8,2.2,5.8,2.2L214.6,160z"/>
	<path id="XMLID_83_" class="st4" d="M271.3,164.4c1,0,3.6-0.6,3.6-0.6s2.2,3.6,5,5c0.6,0.3-1.7,3.3,1.1,5.3
		c0.6,0.4-4.5-0.5-6.2,0.3c-2.4,1.1-3.9,4.1-6.7,5.9c-3.8,2.4,0.6,5.4-0.6,5.6c-1.2,0.2-4.9-2.1-5.5-2.1c-0.7,0-3.4,0.9-3.4,2.1
		c0,1.2,2.2,4.2-1.7,5.2c-2,0.5-3.8-0.6-3.9-3c-1.6-0.3-2.5,1.1-2.5,1.1c-1.5,1.7-4,1.3-4.6-1.5c-0.2-0.7-0.6-3.9,4.1-4.1
		c1.4-0.1,1.4,0.5,1.7,0c0.3-0.5-3.2-1.7-2.7-2.9c0.5-1.2,1.1-3.6,4.6-2.1c1.9,0.8,2.3,1.3,2.6,1.6c0.4,0.3,11-7.6,11-7.6
		s-1.1-0.7-2.5-1.1c-1.3-0.4-3.2,0.5-3.1-0.8C261.7,169.2,270.3,164.4,271.3,164.4z"/>
	<path id="XMLID_84_" class="st4" d="M222.6,154.8c0.3,0.6,3.6,2.3,5.3,1.8c0.5-0.1-0.4,4.9-5.6,4.7c-5.3-0.2-5.9-5.9-5.2-5.3
		C218.2,156.9,222.6,154.8,222.6,154.8z"/>
	<path id="XMLID_85_" class="st4" d="M212.6,153.9c1.5,1.3,3,2.1,2.9,1.8c0.1,0.8-1.1,2.4-2.1,2.7c-1.1,0.3-2.5-0.7-2.5-1.9
		C210.9,155.3,212.6,153.9,212.6,153.9z"/>
	<path id="XMLID_86_" class="st4" d="M232,154.2c-1.5,1.3-3,2.1-2.9,1.8c-0.1,0.8,1.1,2.4,2.1,2.7c1,0.3,2.5-0.7,2.5-1.9
		C233.7,155.6,232,154.2,232,154.2z"/>
	<path id="XMLID_87_" class="st4" d="M206.4,144c-0.1,2,0.3,3.6,0.5,3.4c-0.5,0.5-2.5,0.7-3.5,0.1c-0.9-0.6-1.1-2.4-0.2-3.2
		C204.3,143.6,206.4,144,206.4,144z"/>
	<path id="XMLID_88_" class="st4" d="M239.3,144c0.1,2-0.3,3.6-0.5,3.4c0.5,0.5,2.5,0.7,3.5,0.1c0.9-0.6,1.1-2.4,0.2-3.2
		C241.5,143.6,239.3,144,239.3,144z"/>
	<path id="XMLID_89_" class="st4" d="M209.8,255.2c0,0-1.3-0.2-1.3-1.7c0-1.5,1.3-1.9,1.3-1.9h6.1l0,3.7L209.8,255.2z"/>
	<path id="XMLID_90_" class="st4" d="M209.8,261.7c0,0-1.3-0.2-1.3-1.7s1.3-1.9,1.3-1.9h6.1l0,3.7L209.8,261.7z"/>
	<path id="XMLID_91_" class="st4" d="M209.8,267.9c0,0-1.3-0.2-1.3-1.7c0-1.5,1.3-2,1.3-2h6.1l0,3.7L209.8,267.9z"/>
	<path id="XMLID_92_" class="st4" d="M209.8,274.3c0,0-1.3-0.2-1.3-1.7c0-1.5,1.3-1.9,1.3-1.9h6.1l0,3.7L209.8,274.3z"/>
	<path id="XMLID_93_" class="st4" d="M222.4,149.2L222.4,149.2L222.4,149.2L222.4,149.2h0.1h0h0.1h0h0.1h0h0.1h0
		c1.4-0.1,2.7-0.4,3.1-0.7c1-1,0.8-2.3,0.8-3.4c0-1.3-0.5-3-0.5-3c1.1-0.5,5-1.2,6.2-1.8c1.7-0.8,1,2.8,1,2.8c-1.1,0.6-5,1.4-5,1.4
		c0,0.6,0.1,1.7,0,4.4c0,0.8-1.2,1.7-2.1,2.3c-0.8,0.6-3.3,0.4-3.3,0.4s0.8,2.2,3.7,1.9c1.3-0.1,3.8-0.1,5.2-1.4
		c0.9-0.8,1.4-1.6,1.4-1.6c0.7,0.5,0.9,1.2,1.8,1.9c1.3,0.8,1.4,0.7,2.9,0.3c0.7-0.2,1.3-2.2,0.4-3c-0.9-0.8-0.6-0.7-1.6-1.2
		c-0.9-0.5-1-0.7-0.8-1.2c0.2-0.5,0.8-1.2,1-1.6c0.4-1.3-0.4-3.6,0.8-3.6c4.2,0.1,4.4-5.3,1.6-5.9c-4.5-0.8-4,2.6-4.7,2.1
		c-0.7-0.5,2.6-3.5-1-5.8c-2.3-1.4-5.1-0.3-5.1-0.3s-0.4-0.1-2,2.4c-0.6,0.8-0.2-2.7-1.7-3.6c-0.8-0.5-1.6-0.7-2.3-0.8v0l0,0l0,0v0
		c-0.7,0.1-1.5,0.4-2.3,0.8c-1.5,0.9-1.2,4.4-1.7,3.6c-1.6-2.4-2-2.4-2-2.4s-2.8-1.1-5.2,0.3c-3.7,2.3-0.3,5.4-1,5.8
		c-0.7,0.5-0.2-3-4.7-2.1c-2.8,0.5-2.6,5.9,1.6,5.9c1.1,0,0.3,2.3,0.8,3.6c0.1,0.4,0.7,1.2,1,1.6c0.2,0.5,0.2,0.7-0.7,1.2
		c-0.9,0.5-0.7,0.4-1.6,1.2c-0.9,0.8-0.2,2.8,0.4,3c1.5,0.4,1.6,0.5,2.9-0.3c1-0.6,1.2-1.4,1.8-1.9c0,0,0.5,0.8,1.4,1.6
		c1.5,1.2,4,1.2,5.2,1.4c2.9,0.3,3.7-1.9,3.7-1.9s-2.6,0.1-3.3-0.4c-0.9-0.6-2.1-1.5-2.1-2.3c-0.1-2.7,0-3.8,0-4.4
		c0,0-3.8-0.8-5-1.4c0,0-0.7-3.7,1-2.8c1.2,0.6,5.1,1.3,6.2,1.8c0,0-0.4,1.8-0.5,3c0,1.1-0.2,2.3,0.8,3.4
		C219.6,148.8,220.9,149.1,222.4,149.2z"/>
</g>
</svg>
